<svg id="Camada_2" data-name="Camada 2" xmlns="http://www.w3.org/2000/svg" xmlns:xlink="http://www.w3.org/1999/xlink" viewBox="0 0 267 265"><defs><style>.cls-1{fill:url(#Gradiente_sem_nome_9);}.cls-2{fill:url(#Gradiente_sem_nome_5);}.cls-3{fill:url(#Gradiente_sem_nome_18);}.cls-4{fill:url(#Gradiente_sem_nome_18-2);}</style><linearGradient id="Gradiente_sem_nome_9" x1="3.72" y1="175.69" x2="264" y2="175.69" gradientUnits="userSpaceOnUse"><stop offset="0" stop-color="#3e083a"/><stop offset="1" stop-color="#682050"/></linearGradient><linearGradient id="Gradiente_sem_nome_5" x1="3.72" y1="192.84" x2="264" y2="192.84" gradientUnits="userSpaceOnUse"><stop offset="0" stop-color="#4d0b3b"/><stop offset="1" stop-color="#822a64"/></linearGradient><linearGradient id="Gradiente_sem_nome_18" x1="50.59" y1="103.62" x2="74.26" y2="11.43" gradientUnits="userSpaceOnUse"><stop offset="0" stop-color="#14782f"/><stop offset="1" stop-color="#32b447"/></linearGradient><linearGradient id="Gradiente_sem_nome_18-2" x1="730.71" y1="236.69" x2="748.84" y2="166.07" gradientTransform="matrix(-0.95, -0.45, -0.43, 0.9, 929.7, 226.91)" xlink:href="#Gradiente_sem_nome_18"/></defs><title>favicon</title><path class="cls-1" d="M193,87.55c-59.15,0-78.08,43.77-119.49,45-44.95,1.28-55.6,9.46-69.8,0,9,62.49,65.46,131.32,130.73,131.32C206,263.83,264,200.18,264,129,264,110.39,243.89,87.55,193,87.55Z"/><path class="cls-2" d="M201.3,159.72c-81.72,0-88.51-37.86-143.16-37.86-33.12,0-49.69,8.28-54.42,10.65,0,71.87,58.27,131.32,130.14,131.32A130.15,130.15,0,0,0,264,133.69a36.17,36.17,0,0,1-.1-4.76C261.63,145.52,219,159.72,201.3,159.72Z"/><path class="cls-3" d="M66.43,65.07S73.29,82.64,96,111.21c1.69-4.4,6-28-5.91-47.32C74.71,39,62.88,30.76,29.75,0,45.13,31.94,39.86,59.27,57,93.46c8.28,16.57,25.63,18.35,34.31,20.12C82.16,100.73,72.34,87.55,66.43,65.07Z"/><path class="cls-4" d="M137.3,76.12s-8.22,10.74-33,22.08c.22-3.47,2.56-21.93,17-30.72,18.53-11.31,26-14.39,58.75-23.71-20.77,16-22.43,37.34-45.11,54.25-11,8.19-22,6.67-28.6,5C116.67,97.51,126.09,89,137.3,76.12Z"/></svg>