<svg id="Camada_2" data-name="Camada 2" xmlns="http://www.w3.org/2000/svg" xmlns:xlink="http://www.w3.org/1999/xlink" viewBox="0 0 703 265"><defs><style>.cls-1{fill:url(#Gradiente_sem_nome_9);}.cls-2{font-size:20.84px;fill:#666;font-family:MyriadPro-Regular, Myriad Pro;}.cls-3{letter-spacing:-0.01em;}.cls-4{letter-spacing:0em;}.cls-5{letter-spacing:0.01em;}.cls-6{letter-spacing:0.01em;}.cls-7{letter-spacing:0.01em;}.cls-8{letter-spacing:-0.01em;}.cls-9{letter-spacing:0em;}.cls-10{fill:#682050;}.cls-11{fill:url(#xlr);}.cls-12{fill:#fff;}.cls-13{fill:url(#Gradiente_sem_nome_18);}.cls-14{fill:url(#Gradiente_sem_nome_18-2);}</style><linearGradient id="Gradiente_sem_nome_9" x1="12" y1="160.5" x2="232" y2="160.5" gradientUnits="userSpaceOnUse"><stop offset="0" stop-color="#3e083a"/><stop offset="1" stop-color="#682050"/></linearGradient><linearGradient id="xlr" x1="12" y1="175" x2="232" y2="175" gradientUnits="userSpaceOnUse"><stop offset="0" stop-color="#4d0b3b"/><stop offset="1" stop-color="#822a64"/></linearGradient><linearGradient id="Gradiente_sem_nome_18" x1="51.62" y1="99.59" x2="71.62" y2="21.66" gradientUnits="userSpaceOnUse"><stop offset="0" stop-color="#14782f"/><stop offset="1" stop-color="#32b447"/></linearGradient><linearGradient id="Gradiente_sem_nome_18-2" x1="113" y1="91.17" x2="128.32" y2="31.48" gradientTransform="matrix(-0.95, -0.45, -0.43, 0.9, 269.4, 73.18)" xlink:href="#Gradiente_sem_nome_18"/></defs><title>logo</title><path class="cls-1" d="M172,86c-50,0-66,37-101,38-38,1.09-47,8-59,0,7.59,52.83,55.33,111,110.5,111C183,235,232,181.2,232,121,232,105.3,215,86,172,86Z"/><text class="cls-2" transform="translate(235.67 228.82)"><tspan class="cls-3">b</tspan><tspan class="cls-4" x="11.71" y="0">y APO </tspan><tspan class="cls-5" x="68.58" y="0">S</tspan><tspan x="78.98" y="0">o</tspan><tspan class="cls-6" x="90.42" y="0">f</tspan><tspan class="cls-7" x="96.74" y="0">t</tspan><tspan class="cls-8" x="103.82" y="0">w</tspan><tspan x="118.96" y="0">o</tspan><tspan class="cls-9" x="130.4" y="0">r</tspan><tspan x="137.3" y="0">ks</tspan></text><path class="cls-10" d="M257.93,165.67c.09.92.14,1.61.14,2.07,0,2.22-.39,3.75-1.18,4.6s-2.15,1.29-4.11,1.29-3.48,0-4.54-.07q-2.7,19.65-2.7,28.16,0,4.09.18,5.92t.93,6.26a13.19,13.19,0,0,1-7.33-5.15,14.92,14.92,0,0,1-2.36-8.41A162.51,162.51,0,0,1,239,178.88c.32-2.39.53-4,.62-4.77a30.34,30.34,0,0,0-7.47,2.35c-.09-1-.14-1.77-.14-2.28,0-2.49.76-4.18,2.28-5.05a13.86,13.86,0,0,1,6.58-1.39,51.24,51.24,0,0,1,3.7-11.69,23.14,23.14,0,0,1,5.09-7.41q5.25-4.84,11-4.84a9.61,9.61,0,0,1,6.54,2.32,7.21,7.21,0,0,1,2.66,5.67,8.38,8.38,0,0,1-2.28,5.85,7.78,7.78,0,0,1-6,2.49,8.64,8.64,0,0,1-2.84-.48,10.36,10.36,0,0,0,3.26-6.82,4.62,4.62,0,0,0-.8-2.87,2.54,2.54,0,0,0-2.11-1q-2.83,0-5.78,4.74T248.94,168Q255.09,168,257.93,165.67Z"/><path class="cls-10" d="M272.88,183.59q2.49-9,6-13.25c2.33-2.84,4.49-4.26,6.5-4.26a5.1,5.1,0,0,1,4.53,2.25,10.14,10.14,0,0,1,1.53,5.81,11.09,11.09,0,0,1-2.11,6.54,6.71,6.71,0,0,1-5.78,3,6,6,0,0,1-2.29-.55,10.15,10.15,0,0,0,2.15-6.51c0-1.47-.6-2.21-1.8-2.21-.88,0-1.82.61-2.84,1.83a21,21,0,0,0-2.9,5.05,38.94,38.94,0,0,0-2.32,8.24,57.71,57.71,0,0,0-.94,10.69q0,.69.35,5.88c-1.48.09-2.42.14-2.84.14q-3.94,0-5.67-1.38c-1.16-.93-1.73-2.45-1.73-4.57q0-1.38,1.45-10.66a100.46,100.46,0,0,0,1.45-14.77,41.38,41.38,0,0,0-1.17-10.14c3.36,1.06,5.72,2.57,7.06,4.53a11.92,11.92,0,0,1,2,6.85A43.5,43.5,0,0,1,272.88,183.59Z"/><path class="cls-10" d="M302.78,193a10.27,10.27,0,0,0,1.21,5.3,3.78,3.78,0,0,0,3.42,2q3.25,0,6.2-3.81a29.39,29.39,0,0,0,4.7-9.76,39.61,39.61,0,0,0,1.77-11.31,72.15,72.15,0,0,0-.42-8.69c1.39-.09,2.36-.13,2.91-.13A9,9,0,0,1,327.9,168q1.8,1.32,1.8,4.71,0,1.31-1.66,10.69a90.37,90.37,0,0,0-1.66,15,22.38,22.38,0,0,0,2.14,10q-5.19-.9-7.61-3.84c-1.62-2-2.42-4.79-2.42-8.48,0-.65.09-1.89.27-3.74a20.92,20.92,0,0,1-6.64,10.59q-4.77,4-9.38,4a9.09,9.09,0,0,1-7.4-3.42q-2.8-3.44-2.81-9.73a34.08,34.08,0,0,1,2.25-12.21,25.84,25.84,0,0,1,6.75-10,14.52,14.52,0,0,1,10-4.11,15.59,15.59,0,0,1,6.5,1.52,20.7,20.7,0,0,0-11.14,9.79A28.79,28.79,0,0,0,302.78,193Z"/><path class="cls-10" d="M368.59,198.75a70.73,70.73,0,0,0,.41,7.33c-1.47.09-2.44.14-2.9.14-2.59,0-4.45-.45-5.61-1.35a4.74,4.74,0,0,1-1.73-4,78.42,78.42,0,0,1,1.49-10.83,76.31,76.31,0,0,0,1.49-12.46c0-2.83-.93-4.25-2.77-4.25a5,5,0,0,0-3.32,1.83,20,20,0,0,0-3.39,5,34.33,34.33,0,0,0-2.67,8.06,44.52,44.52,0,0,0-1.07,9.44,78.18,78.18,0,0,0,.42,8.41c-1.48.09-2.45.14-2.91.14-2.59,0-4.45-.45-5.61-1.35s-1.73-2.41-1.73-4.53c0-.51.48-4,1.42-10.31a108.4,108.4,0,0,0,1.42-15.12,41.18,41.18,0,0,0-1.18-10.21c3.42,1.06,5.79,2.58,7.13,4.57a12.77,12.77,0,0,1,2,7.33,40.1,40.1,0,0,1-.49,5.61,31.92,31.92,0,0,1,6.54-11.49q4.18-4.58,8.1-4.57a6.14,6.14,0,0,1,5.68,2.91q1.76,2.91,1.76,8.37a29.13,29.13,0,0,1,6-8.16q3.39-3.12,6.23-3.12,4.21,0,6,2.53a11.82,11.82,0,0,1,1.76,6.85,76.49,76.49,0,0,1-1.35,12.14,75.62,75.62,0,0,0-1.35,11.39,11.24,11.24,0,0,0,.9,5.19,7.41,7.41,0,0,0,3.05,2.8c-.6,0-1.46.07-2.56.07q-5.82,0-8.27-1.8T379,199a68.51,68.51,0,0,1,1.38-10,66.44,66.44,0,0,0,1.39-11.1c0-3-.93-4.57-2.77-4.57-1.39,0-2.87,1-4.46,3a27.23,27.23,0,0,0-4.19,9.06A46.66,46.66,0,0,0,368.59,198.75Z"/><path class="cls-10" d="M415.92,189.06a28.25,28.25,0,0,1-6.5-.76c-.05.46-.07,1.17-.07,2.14,0,3.83.71,6.71,2.15,8.65a6.22,6.22,0,0,0,5.12,2.91,10.06,10.06,0,0,0,5.67-1.8,16.36,16.36,0,0,0,4.71-5c1.66.37,2.49,1.22,2.49,2.56q-6.09,9.34-15.71,9.34a13.78,13.78,0,0,1-10.17-4.46q-4.37-4.47-4.36-12.43a28.64,28.64,0,0,1,2.28-11.31,21.77,21.77,0,0,1,7.27-9.07,18.12,18.12,0,0,1,11-3.7c4,0,7,.92,8.9,2.77a9.69,9.69,0,0,1,2.83,7.27q0,6.5-4.53,9.68A18.78,18.78,0,0,1,415.92,189.06Zm2.91-18.62c-2.35,0-4.34,1.46-5.95,4.36a28.68,28.68,0,0,0-3.18,10.59h1q6,0,8.9-3.11a10.67,10.67,0,0,0,2.87-7.48,5.05,5.05,0,0,0-.94-3.08A3.17,3.17,0,0,0,418.83,170.44Z"/><path class="cls-10" d="M472.4,206.08a8.6,8.6,0,0,1-4.26,1c-1.69,0-2.62-.34-2.8-1q-1.24-5.67-2.22-12.59t-1.24-8.79q-7.28,15-9.76,21.45a8.26,8.26,0,0,1-4.22,1c-1.71,0-2.66-.34-2.84-1q-1-4.42-2.22-13.25t-2.49-15.43a32.56,32.56,0,0,0-3.32-10,15.27,15.27,0,0,1,5.92-1.8,5.39,5.39,0,0,1,3.11.72,5.26,5.26,0,0,1,1.66,2.36,22.25,22.25,0,0,1,1.08,3.49,43.26,43.26,0,0,1,.69,4.81q.27,2.94.48,5.64c.51,6.78.93,11.45,1.25,14q6.09-14.53,8.58-22.77a28.6,28.6,0,0,0-2.49-6.43,15.27,15.27,0,0,1,5.92-1.8,5.39,5.39,0,0,1,3.11.72,5.26,5.26,0,0,1,1.66,2.36,21.24,21.24,0,0,1,1.07,3.49,40.74,40.74,0,0,1,.7,4.81q.27,2.94.48,5.64c.51,6.78.92,11.45,1.25,14q10.23-24.08,10.44-31.9,5.47,2.91,5.47,5.92t-2.7,9.2Q482,185.95,478,194T472.4,206.08Z"/><path class="cls-10" d="M506.86,165.18a2.47,2.47,0,0,1,1.42.45,1.22,1.22,0,0,1,.65.94,19.44,19.44,0,0,0-8.37,13.49,27.44,27.44,0,0,1,3.56-6.71,17.17,17.17,0,0,1,4.4-4.29,16.14,16.14,0,0,1,8.51-2.7q4.15,0,7.06,4.08T527,181.38a31.9,31.9,0,0,1-3.12,14.11q-3.45,7.27-9.82,10a19.31,19.31,0,0,1-7.89,1.59,14.07,14.07,0,0,1-10.49-4.67q-4.46-4.68-4.46-13.43a27.93,27.93,0,0,1,4.29-15.43A18.45,18.45,0,0,1,506.86,165.18Zm5.88,6.23q-4.5,0-8,6.06a23.81,23.81,0,0,0-3.53,12.07q0,12.6,6.51,12.6,4.63,0,7.54-6.06a31,31,0,0,0,2.91-13.6Q518.14,171.41,512.74,171.41Z"/><path class="cls-10" d="M545.47,183.59q2.49-9,6-13.25t6.5-4.26a5.13,5.13,0,0,1,4.54,2.25,10.21,10.21,0,0,1,1.52,5.81,11,11,0,0,1-2.11,6.54,6.7,6.7,0,0,1-5.78,3,6,6,0,0,1-2.28-.55A10.14,10.14,0,0,0,556,176.6c0-1.47-.6-2.21-1.8-2.21-.87,0-1.82.61-2.83,1.83a20.65,20.65,0,0,0-2.91,5.05,39.55,39.55,0,0,0-2.32,8.24,58.61,58.61,0,0,0-.93,10.69q0,.69.34,5.88c-1.47.09-2.42.14-2.83.14-2.63,0-4.53-.46-5.68-1.38s-1.73-2.45-1.73-4.57q0-1.38,1.45-10.66a100.72,100.72,0,0,0,1.46-14.77A41.37,41.37,0,0,0,537,164.7q5.06,1.59,7.06,4.53a11.86,11.86,0,0,1,2,6.85A43.48,43.48,0,0,1,545.47,183.59Z"/><path class="cls-10" d="M576.55,184.7q2.49-14.19,10.17-17.79a9,9,0,0,1,3.81-.9,8.24,8.24,0,0,1,6.22,2.7,9.64,9.64,0,0,1,2.56,6.92,11.25,11.25,0,0,1-2.38,7.23,15.43,15.43,0,0,1-6.68,4.68l.83,2.56a63.19,63.19,0,0,0,6.64,14.11q4.37,7,7.06,9.55a18.32,18.32,0,0,1-4.43.63q-7,0-12.25-10.18a152,152,0,0,1-6.09-15c-.6,0-1.47.07-2.63.07-.27-.23-.41-1-.41-2.22a15.23,15.23,0,0,0,5.67-1.11,9.89,9.89,0,0,0,3.88-2.7,11.46,11.46,0,0,0,2.63-7.12,5.48,5.48,0,0,0-.8-3.08,2.53,2.53,0,0,0-2.25-1.21c-1.7,0-3.45,1.22-5.22,3.66a32.26,32.26,0,0,0-4.5,10.21A45.57,45.57,0,0,0,576.55,198a54.36,54.36,0,0,0,.41,8.13c-1.48.09-2.44.14-2.91.14q-3.94,0-5.67-1.35a5.15,5.15,0,0,1-1.73-4.32,92.75,92.75,0,0,1,1.25-11.35q3.66-25.75,3.66-39.1c0-4-.27-6.72-.83-8.1q5.19,1.38,7.1,4.19c1.26,1.86,1.9,4.51,1.9,7.92q0,3.46-1.35,14.53T576.55,184.7Z"/><path class="cls-11" d="M179,147c-69.07,0-74.81-32-121-32-28,0-42,7-46,9,0,60.75,49.25,111,110,111A110,110,0,0,0,232,125a30.19,30.19,0,0,1-.08-4C230,135,194,147,179,147Z"/><path class="cls-12" d="M90.85,204.06a4.73,4.73,0,0,1-3.65-1.27,10.4,10.4,0,0,1-2-3.86c-.55-1.73-1.63-6.35-3.24-13.89-1.06.92-2.78,1.42-5.17,1.52L65,187a136.83,136.83,0,0,0-6.21,18.26q-6.61-2.34-6.61-5.3,0-1.32,4-9.79l9.06-19.26q5.07-10.78,6.86-15.68l1.24-3.38a32.42,32.42,0,0,0-2.69-3.51,13.68,13.68,0,0,1,4.31-.83,14.27,14.27,0,0,1,3,.27,6.22,6.22,0,0,1,2.13.93A14.7,14.7,0,0,1,81.79,150a6.67,6.67,0,0,1,1.34,2c.42.9.76,1.7,1,2.41s.58,1.72.93,3,.62,2.4.82,3.34.49,2.26.83,3.93.7,3.3,1.07,4.86,1,4.54,1.93,8.93,1.64,7.67,2.17,9.85a71,71,0,0,0,2.27,7.34,27.9,27.9,0,0,0,3.14,6.41A15.86,15.86,0,0,1,90.85,204.06ZM76.52,161q-1,2.2-4.24,9.4c-2.19,4.81-3.87,8.63-5.07,11.48H81.34Q78.1,167,76.52,161Z"/><path class="cls-12" d="M111.32,187.38q0,11.52,6.75,11.51a9.49,9.49,0,0,0,5.31-1.79,16.35,16.35,0,0,0,4.69-5c1.65.37,2.48,1.22,2.48,2.55a17.55,17.55,0,0,1-7.1,7.17A18.47,18.47,0,0,1,115,204a12.76,12.76,0,0,1-9.61-4.17q-4-4.17-4-12.09a27.49,27.49,0,0,1,5.59-17.34,18.09,18.09,0,0,1,15.09-7.2c3.54,0,6.2.86,8,2.59a8.21,8.21,0,0,1,2.68,6.13,9.36,9.36,0,0,1-2.17,6.17,6.87,6.87,0,0,1-5.55,2.62,8.5,8.5,0,0,1-3.3-.69,11.51,11.51,0,0,0,1.93-3.69,14.13,14.13,0,0,0,.89-4.65c0-2.8-1.22-4.21-3.65-4.21q-4.27,0-7,6.28A34.3,34.3,0,0,0,111.32,187.38Zm-1.1,18.34q4.68.27,6.89,2.37a7.49,7.49,0,0,1,2.2,5.69,11.05,11.05,0,0,1-2.58,6.89,13.05,13.05,0,0,1-6.93,4.55q-3.72-1.38-3.72-5.86a10.18,10.18,0,0,0,5.21-2.38,5.3,5.3,0,0,0,1.89-4c0-2.2-1.35-3.79-4.07-4.75A4.32,4.32,0,0,1,110.22,205.72Z"/><path class="cls-12" d="M148.4,189.93a10.22,10.22,0,0,0,1.21,5.28,3.77,3.77,0,0,0,3.41,2c2.16,0,4.21-1.26,6.17-3.79a29.54,29.54,0,0,0,4.68-9.72,39.73,39.73,0,0,0,1.76-11.27,74,74,0,0,0-.41-8.65c1.37-.09,2.34-.14,2.89-.14a9,9,0,0,1,5.31,1.31q1.79,1.32,1.79,4.69,0,1.31-1.65,10.65a89.57,89.57,0,0,0-1.66,15,22.17,22.17,0,0,0,2.14,10c-3.45-.59-6-1.87-7.58-3.82S164,196.64,164,193c0-.65.1-1.89.28-3.73a20.83,20.83,0,0,1-6.62,10.55q-4.75,4-9.34,4a9,9,0,0,1-7.37-3.42q-2.79-3.41-2.79-9.68a34,34,0,0,1,2.24-12.16,25.71,25.71,0,0,1,6.72-10,14.47,14.47,0,0,1,10-4.1,15.5,15.5,0,0,1,6.48,1.52,20.62,20.62,0,0,0-11.1,9.75A28.76,28.76,0,0,0,148.4,189.93Z"/><path class="cls-12" d="M184.44,158a33.81,33.81,0,0,1,5.93-8.72,22.78,22.78,0,0,1,7.93-6.09,8.75,8.75,0,0,1,4.34,7.37,28.69,28.69,0,0,0-8.51,4,34.6,34.6,0,0,0-6.79,5.76,4.41,4.41,0,0,1-1.93-.86A2.46,2.46,0,0,1,184.44,158Zm10.93,21.54a103,103,0,0,0-1.73,16.2q0,6.38.8,8.23-5.38-1.38-7.24-4.17t-1.86-8.16a88,88,0,0,1,1.1-10.48,87,87,0,0,0,1.11-11.79,37.84,37.84,0,0,0-.42-6.47c1-.09,2-.14,2.83-.14q4,0,5.55,1.34t1.55,4.59Q197.06,169.73,195.37,179.56Z"/><path class="cls-13" d="M65,67s5.8,14.85,25,39c1.42-3.72,5.11-23.66-5-40C72,45,62,38,34,12c13,27,8.55,50.1,23,79,7,14,21.66,15.5,29,17C78.3,97.14,70,86,65,67Z"/><path class="cls-14" d="M124.91,76.34S118,85.42,97,95c.19-2.93,2.16-18.53,14.34-26,15.66-9.55,22-12.15,49.66-20-17.56,13.52-19,31.56-38.13,45.85-9.28,6.92-18.61,5.64-24.18,4.19C107.47,94.42,115.43,87.23,124.91,76.34Z"/></svg>